<?xml version="1.0" standalone="no"?>
<!DOCTYPE svg PUBLIC "-//W3C//DTD SVG 20010904//EN"
 "http://www.w3.org/TR/2001/REC-SVG-20010904/DTD/svg10.dtd">
<svg version="1.0" xmlns="http://www.w3.org/2000/svg"
 width="850.000000pt" height="850.000000pt" viewBox="0 0 850.000000 850.000000"
 preserveAspectRatio="xMidYMid meet">
<metadata>
Created by potrace 1.11, written by Peter Selinger 2001-2013
</metadata>
<g transform="translate(0.000000,850.000000) scale(0.100000,-0.100000)"
fill="#000000" stroke="none">
<path d="M1228 6125 c-2 -2 -25 -6 -53 -9 -128 -17 -293 -80 -399 -154 -197
-136 -328 -346 -372 -597 -4 -22 -9 -515 -10 -1095 -2 -1075 -1 -1116 35
-1250 76 -286 336 -537 636 -614 103 -26 146 -30 270 -29 383 4 718 235 845
582 58 157 57 148 55 1321 -2 1068 -2 1076 -24 1155 -63 234 -173 401 -342
518 -138 95 -258 141 -439 167 -58 8 -195 11 -202 5z m189 -661 c37 -12 69
-31 99 -60 79 -78 75 -16 72 -1180 l-3 -1029 -22 -40 c-43 -80 -118 -125 -223
-133 -151 -11 -260 62 -290 193 -12 52 -17 1968 -6 2049 8 56 43 123 81 153
75 60 191 79 292 47z"/>
<path d="M2399 6064 l-32 -33 0 -241 0 -241 32 -33 32 -33 247 -1 c136 0 254
-1 263 -1 14 -1 16 -139 16 -1506 l0 -1506 33 -34 34 -35 258 1 257 2 32 34
33 33 0 1499 c1 825 4 1503 9 1507 4 4 122 7 262 7 l254 0 31 32 31 32 2 241
1 240 -33 35 -33 35 -848 0 -848 0 -33 -34z"/>
<path d="M4714 6067 c-4 -18 -9 -36 -10 -42 -1 -5 -14 -62 -28 -125 -15 -63
-29 -128 -32 -145 -3 -16 -9 -46 -14 -65 -5 -19 -12 -50 -15 -69 -3 -19 -8
-37 -10 -41 -2 -4 -6 -20 -9 -36 -3 -16 -28 -130 -56 -254 -28 -124 -52 -234
-54 -245 -2 -11 -12 -51 -21 -90 -9 -38 -19 -81 -21 -94 -3 -13 -32 -146 -66
-295 -33 -149 -75 -338 -93 -421 -19 -82 -68 -303 -110 -490 -42 -187 -78
-349 -81 -360 -8 -42 -13 -61 -23 -105 -5 -25 -12 -56 -15 -70 -3 -14 -13 -56
-22 -95 -8 -38 -17 -79 -19 -90 -3 -11 -9 -41 -15 -66 -6 -26 -13 -53 -14 -60
-3 -20 -45 -205 -60 -269 l-14 -55 33 -40 33 -40 281 -2 c154 -1 283 2 285 6
3 4 7 19 10 34 3 15 7 35 10 45 3 9 7 33 10 52 3 19 16 91 30 160 14 69 28
141 31 160 3 19 8 42 10 50 2 8 7 29 10 45 3 17 13 71 23 120 l17 90 293 1
c160 0 292 -1 292 -2 0 -1 11 -58 25 -126 13 -68 27 -139 30 -158 9 -55 74
-380 86 -432 l11 -47 281 1 280 1 26 30 c14 16 29 36 34 43 6 10 -90 466 -168
801 -38 161 -44 190 -49 213 -2 14 -12 57 -20 95 -9 39 -25 111 -36 160 -11
50 -38 171 -60 270 -62 274 -81 358 -86 385 -3 14 -7 33 -10 42 -3 10 -7 28
-9 40 -3 13 -34 156 -71 318 -36 162 -67 304 -70 315 -2 10 -20 91 -40 180
-20 88 -42 187 -49 220 -15 66 -40 180 -95 420 l-36 160 -267 2 -266 1 -7 -31z
m286 -1468 c6 -30 12 -65 15 -79 7 -38 56 -292 61 -315 2 -11 16 -81 30 -155
14 -74 27 -139 28 -145 2 -5 6 -32 11 -60 4 -27 8 -52 9 -55 1 -3 -74 -5 -166
-6 l-168 -1 0 26 c0 14 7 58 16 96 8 39 17 86 20 105 2 19 6 42 9 50 2 8 18
85 35 170 16 85 31 164 34 175 2 11 7 40 12 65 4 25 8 47 9 50 0 3 7 36 14 73
7 37 15 66 17 64 2 -2 9 -28 14 -58z"/>
<path d="M6348 6065 l-37 -35 0 -1780 1 -1780 34 -34 34 -34 254 0 254 1 35
33 34 33 1 653 c0 359 1 658 1 663 1 6 57 10 151 9 164 -1 301 15 399 47 167
55 313 167 417 321 46 68 109 195 118 239 3 13 12 50 20 82 8 31 17 90 21 130
4 39 9 86 11 102 5 39 5 420 0 465 -3 19 -7 62 -11 95 -27 254 -110 435 -273
592 -123 119 -246 177 -462 218 -19 4 -244 9 -500 11 l-465 3 -37 -34z m928
-595 c80 -17 130 -55 164 -125 40 -80 44 -127 44 -416 0 -205 -3 -257 -18
-312 -25 -91 -61 -138 -133 -173 -55 -28 -66 -29 -215 -33 -87 -1 -158 1 -159
5 -1 12 -1 1023 0 1049 1 19 7 20 133 18 72 -1 155 -7 184 -13z"/>
</g>
</svg>
